<mxfile host="app.diagrams.net" agent="Mozilla/5.0 (Windows NT 10.0; Win64; x64) AppleWebKit/537.36 (KHTML, like Gecko) Chrome/136.0.0.0 Safari/537.36" version="27.1.0">
  <diagram name="Vista FÃ­sica AWS" id="vc_aSVKyxAFfvdqOPNvV">
    <mxGraphModel dx="864" dy="476" grid="1" gridSize="10" guides="1" tooltips="1" connect="1" arrows="1" fold="1" page="1" pageScale="1" pageWidth="827" pageHeight="1169" math="0" shadow="0">
      <root>
        <mxCell id="0" />
        <mxCell id="1" parent="0" />
        <mxCell id="oAxCQ654VfBFCkgefCG7-1" value="AWS Cloud" style="sketch=0;outlineConnect=0;gradientColor=none;html=1;whiteSpace=wrap;fontSize=12;fontStyle=0;shape=mxgraph.aws4.group;grIcon=mxgraph.aws4.group_aws_cloud;strokeColor=#AAB7B8;fillColor=none;verticalAlign=top;align=left;spacingLeft=30;fontColor=#AAB7B8;dashed=0;" vertex="1" parent="1">
          <mxGeometry x="260" y="480" width="1010" height="770" as="geometry" />
        </mxCell>
        <mxCell id="oAxCQ654VfBFCkgefCG7-2" value="Amazon API Gateway" style="sketch=0;outlineConnect=0;fontColor=#232F3E;gradientColor=none;strokeColor=#ffffff;fillColor=#232F3E;dashed=0;verticalLabelPosition=middle;verticalAlign=bottom;align=center;html=1;whiteSpace=wrap;fontSize=10;fontStyle=1;spacing=3;shape=mxgraph.aws4.productIcon;prIcon=mxgraph.aws4.api_gateway;" vertex="1" parent="1">
          <mxGeometry x="278" y="785" width="80" height="110" as="geometry" />
        </mxCell>
        <mxCell id="oAxCQ654VfBFCkgefCG7-3" value="Internet" style="sketch=0;outlineConnect=0;fontColor=#232F3E;gradientColor=none;strokeColor=#232F3E;fillColor=#ffffff;dashed=0;verticalLabelPosition=bottom;verticalAlign=top;align=center;html=1;fontSize=12;fontStyle=0;aspect=fixed;shape=mxgraph.aws4.resourceIcon;resIcon=mxgraph.aws4.internet;" vertex="1" parent="1">
          <mxGeometry x="130" y="810" width="60" height="60" as="geometry" />
        </mxCell>
        <mxCell id="oAxCQ654VfBFCkgefCG7-4" value="User" style="sketch=0;outlineConnect=0;fontColor=#232F3E;gradientColor=none;strokeColor=#232F3E;fillColor=#ffffff;dashed=0;verticalLabelPosition=bottom;verticalAlign=top;align=center;html=1;fontSize=12;fontStyle=0;aspect=fixed;shape=mxgraph.aws4.resourceIcon;resIcon=mxgraph.aws4.user;" vertex="1" parent="1">
          <mxGeometry x="10" y="810" width="60" height="60" as="geometry" />
        </mxCell>
        <mxCell id="oAxCQ654VfBFCkgefCG7-42" style="edgeStyle=orthogonalEdgeStyle;rounded=0;orthogonalLoop=1;jettySize=auto;html=1;" edge="1" parent="1" source="oAxCQ654VfBFCkgefCG7-5" target="oAxCQ654VfBFCkgefCG7-39">
          <mxGeometry relative="1" as="geometry">
            <Array as="points">
              <mxPoint x="1010" y="550" />
              <mxPoint x="1010" y="550" />
            </Array>
          </mxGeometry>
        </mxCell>
        <mxCell id="oAxCQ654VfBFCkgefCG7-76" style="edgeStyle=orthogonalEdgeStyle;rounded=0;orthogonalLoop=1;jettySize=auto;html=1;" edge="1" parent="1" source="oAxCQ654VfBFCkgefCG7-5" target="oAxCQ654VfBFCkgefCG7-35">
          <mxGeometry relative="1" as="geometry">
            <Array as="points">
              <mxPoint x="970" y="824" />
              <mxPoint x="970" y="824" />
            </Array>
          </mxGeometry>
        </mxCell>
        <mxCell id="oAxCQ654VfBFCkgefCG7-5" value="Cluster ECS" style="sketch=0;outlineConnect=0;gradientColor=none;html=1;whiteSpace=wrap;fontSize=12;fontStyle=0;shape=mxgraph.aws4.group;grIcon=mxgraph.aws4.group_aws_cloud;strokeColor=#AAB7B8;fillColor=none;verticalAlign=top;align=left;spacingLeft=30;fontColor=#AAB7B8;dashed=0;" vertex="1" parent="1">
          <mxGeometry x="650" y="515" width="290" height="585" as="geometry" />
        </mxCell>
        <mxCell id="oAxCQ654VfBFCkgefCG7-6" value="" style="sketch=0;outlineConnect=0;fontColor=#232F3E;gradientColor=none;strokeColor=#ffffff;fillColor=#232F3E;dashed=0;verticalLabelPosition=middle;verticalAlign=bottom;align=center;html=1;whiteSpace=wrap;fontSize=10;fontStyle=1;spacing=3;shape=mxgraph.aws4.productIcon;prIcon=mxgraph.aws4.ecs;" vertex="1" parent="1">
          <mxGeometry x="650" y="515" width="30" height="30" as="geometry" />
        </mxCell>
        <mxCell id="oAxCQ654VfBFCkgefCG7-7" value="Auth service" style="sketch=0;outlineConnect=0;fontColor=#232F3E;gradientColor=none;strokeColor=#232F3E;fillColor=#ffffff;dashed=0;verticalLabelPosition=bottom;verticalAlign=top;align=center;html=1;fontSize=12;fontStyle=0;aspect=fixed;shape=mxgraph.aws4.resourceIcon;resIcon=mxgraph.aws4.instance;" vertex="1" parent="1">
          <mxGeometry x="690" y="560" width="60" height="60" as="geometry" />
        </mxCell>
        <mxCell id="oAxCQ654VfBFCkgefCG7-13" value="Amazon RDS" style="sketch=0;outlineConnect=0;fontColor=#232F3E;gradientColor=none;strokeColor=#ffffff;fillColor=#232F3E;dashed=0;verticalLabelPosition=middle;verticalAlign=bottom;align=center;html=1;whiteSpace=wrap;fontSize=10;fontStyle=1;spacing=3;shape=mxgraph.aws4.productIcon;prIcon=mxgraph.aws4.rds;" vertex="1" parent="1">
          <mxGeometry x="750" y="1120" width="80" height="100" as="geometry" />
        </mxCell>
        <mxCell id="oAxCQ654VfBFCkgefCG7-14" value="Amazon SQS" style="sketch=0;outlineConnect=0;fontColor=#232F3E;gradientColor=none;strokeColor=#ffffff;fillColor=#232F3E;dashed=0;verticalLabelPosition=middle;verticalAlign=bottom;align=center;html=1;whiteSpace=wrap;fontSize=10;fontStyle=1;spacing=3;shape=mxgraph.aws4.productIcon;prIcon=mxgraph.aws4.sqs;" vertex="1" parent="1">
          <mxGeometry x="1063" y="940" width="80" height="100" as="geometry" />
        </mxCell>
        <mxCell id="oAxCQ654VfBFCkgefCG7-16" value="Amazon SNS" style="sketch=0;outlineConnect=0;fontColor=#232F3E;gradientColor=none;strokeColor=#ffffff;fillColor=#232F3E;dashed=0;verticalLabelPosition=middle;verticalAlign=bottom;align=center;html=1;whiteSpace=wrap;fontSize=10;fontStyle=1;spacing=3;shape=mxgraph.aws4.productIcon;prIcon=mxgraph.aws4.sns;" vertex="1" parent="1">
          <mxGeometry x="1061" y="640" width="80" height="100" as="geometry" />
        </mxCell>
        <mxCell id="oAxCQ654VfBFCkgefCG7-17" value="" style="edgeStyle=orthogonalEdgeStyle;html=1;endArrow=block;elbow=vertical;startArrow=none;endFill=1;strokeColor=#545B64;rounded=0;" edge="1" parent="1" source="oAxCQ654VfBFCkgefCG7-4" target="oAxCQ654VfBFCkgefCG7-3">
          <mxGeometry width="100" relative="1" as="geometry">
            <mxPoint x="160" y="965" as="sourcePoint" />
            <mxPoint x="260" y="965" as="targetPoint" />
          </mxGeometry>
        </mxCell>
        <mxCell id="oAxCQ654VfBFCkgefCG7-18" value="" style="edgeStyle=orthogonalEdgeStyle;html=1;endArrow=none;elbow=vertical;startArrow=block;startFill=1;strokeColor=#545B64;rounded=0;" edge="1" parent="1" source="oAxCQ654VfBFCkgefCG7-2" target="oAxCQ654VfBFCkgefCG7-3">
          <mxGeometry width="100" relative="1" as="geometry">
            <mxPoint x="260" y="970" as="sourcePoint" />
            <mxPoint x="360" y="970" as="targetPoint" />
          </mxGeometry>
        </mxCell>
        <mxCell id="oAxCQ654VfBFCkgefCG7-19" value="" style="edgeStyle=orthogonalEdgeStyle;html=1;endArrow=block;elbow=vertical;startArrow=none;endFill=1;strokeColor=#545B64;rounded=0;" edge="1" parent="1">
          <mxGeometry width="100" relative="1" as="geometry">
            <mxPoint x="358" y="810" as="sourcePoint" />
            <mxPoint x="690" y="585" as="targetPoint" />
            <Array as="points">
              <mxPoint x="520" y="810" />
              <mxPoint x="520" y="585" />
            </Array>
          </mxGeometry>
        </mxCell>
        <mxCell id="oAxCQ654VfBFCkgefCG7-63" style="edgeStyle=orthogonalEdgeStyle;rounded=0;orthogonalLoop=1;jettySize=auto;html=1;" edge="1" parent="1" source="oAxCQ654VfBFCkgefCG7-34" target="oAxCQ654VfBFCkgefCG7-52">
          <mxGeometry relative="1" as="geometry">
            <Array as="points">
              <mxPoint x="520" y="850" />
              <mxPoint x="520" y="1070" />
              <mxPoint x="780" y="1070" />
              <mxPoint x="780" y="1010" />
            </Array>
          </mxGeometry>
        </mxCell>
        <mxCell id="oAxCQ654VfBFCkgefCG7-69" style="edgeStyle=orthogonalEdgeStyle;rounded=0;orthogonalLoop=1;jettySize=auto;html=1;" edge="1" parent="1" source="oAxCQ654VfBFCkgefCG7-34" target="oAxCQ654VfBFCkgefCG7-47">
          <mxGeometry relative="1" as="geometry">
            <Array as="points">
              <mxPoint x="600" y="820" />
              <mxPoint x="600" y="730" />
            </Array>
          </mxGeometry>
        </mxCell>
        <mxCell id="oAxCQ654VfBFCkgefCG7-70" style="edgeStyle=orthogonalEdgeStyle;rounded=0;orthogonalLoop=1;jettySize=auto;html=1;" edge="1" parent="1" source="oAxCQ654VfBFCkgefCG7-34" target="oAxCQ654VfBFCkgefCG7-48">
          <mxGeometry relative="1" as="geometry">
            <Array as="points">
              <mxPoint x="600" y="840" />
              <mxPoint x="600" y="870" />
            </Array>
          </mxGeometry>
        </mxCell>
        <mxCell id="oAxCQ654VfBFCkgefCG7-34" value="Elastic Load Balancing" style="sketch=0;outlineConnect=0;fontColor=#232F3E;gradientColor=none;strokeColor=#ffffff;fillColor=#232F3E;dashed=0;verticalLabelPosition=middle;verticalAlign=bottom;align=center;html=1;whiteSpace=wrap;fontSize=10;fontStyle=1;spacing=3;shape=mxgraph.aws4.productIcon;prIcon=mxgraph.aws4.elastic_load_balancing;" vertex="1" parent="1">
          <mxGeometry x="380" y="785" width="80" height="110" as="geometry" />
        </mxCell>
        <mxCell id="oAxCQ654VfBFCkgefCG7-35" value="" style="sketch=0;points=[[0,0,0],[0.25,0,0],[0.5,0,0],[0.75,0,0],[1,0,0],[0,1,0],[0.25,1,0],[0.5,1,0],[0.75,1,0],[1,1,0],[0,0.25,0],[0,0.5,0],[0,0.75,0],[1,0.25,0],[1,0.5,0],[1,0.75,0]];outlineConnect=0;fontColor=#232F3E;fillColor=#8C4FFF;strokeColor=#ffffff;dashed=0;verticalLabelPosition=bottom;verticalAlign=top;align=center;html=1;fontSize=12;fontStyle=0;aspect=fixed;shape=mxgraph.aws4.resourceIcon;resIcon=mxgraph.aws4.app_mesh;" vertex="1" parent="1">
          <mxGeometry x="1063" y="785" width="78" height="78" as="geometry" />
        </mxCell>
        <mxCell id="oAxCQ654VfBFCkgefCG7-37" value="AWS Identity and Access Management" style="sketch=0;outlineConnect=0;fontColor=#232F3E;gradientColor=none;strokeColor=#ffffff;fillColor=#232F3E;dashed=0;verticalLabelPosition=middle;verticalAlign=bottom;align=center;html=1;whiteSpace=wrap;fontSize=10;fontStyle=1;spacing=3;shape=mxgraph.aws4.productIcon;prIcon=mxgraph.aws4.identity_and_access_management;" vertex="1" parent="1">
          <mxGeometry x="540" y="560" width="80" height="120" as="geometry" />
        </mxCell>
        <mxCell id="oAxCQ654VfBFCkgefCG7-39" value="Amazon CloudWatch" style="sketch=0;outlineConnect=0;fontColor=#232F3E;gradientColor=none;strokeColor=#ffffff;fillColor=#232F3E;dashed=0;verticalLabelPosition=middle;verticalAlign=bottom;align=center;html=1;whiteSpace=wrap;fontSize=10;fontStyle=1;spacing=3;shape=mxgraph.aws4.productIcon;prIcon=mxgraph.aws4.cloudwatch;" vertex="1" parent="1">
          <mxGeometry x="1060" y="510" width="80" height="110" as="geometry" />
        </mxCell>
        <mxCell id="oAxCQ654VfBFCkgefCG7-43" value="" style="image;aspect=fixed;html=1;points=[];align=center;fontSize=12;image=img/lib/azure2/other/Grafana.svg;" vertex="1" parent="1">
          <mxGeometry x="1173" y="520" width="68" height="52.800000000000004" as="geometry" />
        </mxCell>
        <mxCell id="oAxCQ654VfBFCkgefCG7-45" value="Amazon ElastiCache for Redis" style="sketch=0;outlineConnect=0;fontColor=#232F3E;gradientColor=none;strokeColor=#ffffff;fillColor=#232F3E;dashed=0;verticalLabelPosition=middle;verticalAlign=bottom;align=center;html=1;whiteSpace=wrap;fontSize=10;fontStyle=1;spacing=3;shape=mxgraph.aws4.productIcon;prIcon=mxgraph.aws4.elasticache_for_redis;" vertex="1" parent="1">
          <mxGeometry x="600" y="1110" width="80" height="120" as="geometry" />
        </mxCell>
        <mxCell id="oAxCQ654VfBFCkgefCG7-73" style="edgeStyle=orthogonalEdgeStyle;rounded=0;orthogonalLoop=1;jettySize=auto;html=1;" edge="1" parent="1" source="oAxCQ654VfBFCkgefCG7-46" target="oAxCQ654VfBFCkgefCG7-13">
          <mxGeometry relative="1" as="geometry" />
        </mxCell>
        <mxCell id="oAxCQ654VfBFCkgefCG7-74" style="edgeStyle=orthogonalEdgeStyle;rounded=0;orthogonalLoop=1;jettySize=auto;html=1;" edge="1" parent="1" source="oAxCQ654VfBFCkgefCG7-46" target="oAxCQ654VfBFCkgefCG7-45">
          <mxGeometry relative="1" as="geometry">
            <Array as="points">
              <mxPoint x="720" y="1080" />
              <mxPoint x="640" y="1080" />
            </Array>
          </mxGeometry>
        </mxCell>
        <mxCell id="oAxCQ654VfBFCkgefCG7-46" value="Catalog service" style="sketch=0;outlineConnect=0;fontColor=#232F3E;gradientColor=none;strokeColor=#232F3E;fillColor=#ffffff;dashed=0;verticalLabelPosition=bottom;verticalAlign=top;align=center;html=1;fontSize=12;fontStyle=0;aspect=fixed;shape=mxgraph.aws4.resourceIcon;resIcon=mxgraph.aws4.instance;" vertex="1" parent="1">
          <mxGeometry x="690" y="980" width="60" height="60" as="geometry" />
        </mxCell>
        <mxCell id="oAxCQ654VfBFCkgefCG7-59" style="edgeStyle=orthogonalEdgeStyle;rounded=0;orthogonalLoop=1;jettySize=auto;html=1;" edge="1" parent="1" source="oAxCQ654VfBFCkgefCG7-47" target="oAxCQ654VfBFCkgefCG7-49">
          <mxGeometry relative="1" as="geometry">
            <Array as="points">
              <mxPoint x="780" y="720" />
              <mxPoint x="780" y="590" />
            </Array>
          </mxGeometry>
        </mxCell>
        <mxCell id="oAxCQ654VfBFCkgefCG7-64" style="edgeStyle=orthogonalEdgeStyle;rounded=0;orthogonalLoop=1;jettySize=auto;html=1;" edge="1" parent="1" source="oAxCQ654VfBFCkgefCG7-48" target="oAxCQ654VfBFCkgefCG7-14">
          <mxGeometry relative="1" as="geometry">
            <Array as="points">
              <mxPoint x="720" y="950" />
            </Array>
          </mxGeometry>
        </mxCell>
        <mxCell id="oAxCQ654VfBFCkgefCG7-71" style="edgeStyle=orthogonalEdgeStyle;rounded=0;orthogonalLoop=1;jettySize=auto;html=1;" edge="1" parent="1" source="oAxCQ654VfBFCkgefCG7-47" target="oAxCQ654VfBFCkgefCG7-51">
          <mxGeometry relative="1" as="geometry">
            <Array as="points">
              <mxPoint x="800" y="730" />
              <mxPoint x="800" y="810" />
              <mxPoint x="857" y="810" />
            </Array>
          </mxGeometry>
        </mxCell>
        <mxCell id="oAxCQ654VfBFCkgefCG7-72" style="edgeStyle=orthogonalEdgeStyle;rounded=0;orthogonalLoop=1;jettySize=auto;html=1;" edge="1" parent="1" source="oAxCQ654VfBFCkgefCG7-47" target="oAxCQ654VfBFCkgefCG7-50">
          <mxGeometry relative="1" as="geometry" />
        </mxCell>
        <mxCell id="oAxCQ654VfBFCkgefCG7-47" value="Purchase service" style="sketch=0;outlineConnect=0;fontColor=#232F3E;gradientColor=none;strokeColor=#232F3E;fillColor=#ffffff;dashed=0;verticalLabelPosition=bottom;verticalAlign=top;align=center;html=1;fontSize=12;fontStyle=0;aspect=fixed;shape=mxgraph.aws4.resourceIcon;resIcon=mxgraph.aws4.instance;" vertex="1" parent="1">
          <mxGeometry x="690" y="700" width="60" height="60" as="geometry" />
        </mxCell>
        <mxCell id="oAxCQ654VfBFCkgefCG7-75" style="edgeStyle=orthogonalEdgeStyle;rounded=0;orthogonalLoop=1;jettySize=auto;html=1;" edge="1" parent="1" source="oAxCQ654VfBFCkgefCG7-49" target="oAxCQ654VfBFCkgefCG7-16">
          <mxGeometry relative="1" as="geometry">
            <Array as="points">
              <mxPoint x="1000" y="590" />
              <mxPoint x="1000" y="690" />
            </Array>
          </mxGeometry>
        </mxCell>
        <mxCell id="oAxCQ654VfBFCkgefCG7-49" value="Notification service" style="sketch=0;outlineConnect=0;fontColor=#232F3E;gradientColor=none;strokeColor=#232F3E;fillColor=#ffffff;dashed=0;verticalLabelPosition=bottom;verticalAlign=top;align=center;html=1;fontSize=12;fontStyle=0;aspect=fixed;shape=mxgraph.aws4.resourceIcon;resIcon=mxgraph.aws4.instance;" vertex="1" parent="1">
          <mxGeometry x="827" y="560" width="60" height="60" as="geometry" />
        </mxCell>
        <mxCell id="oAxCQ654VfBFCkgefCG7-66" style="edgeStyle=orthogonalEdgeStyle;rounded=0;orthogonalLoop=1;jettySize=auto;html=1;" edge="1" parent="1" source="oAxCQ654VfBFCkgefCG7-50" target="oAxCQ654VfBFCkgefCG7-14">
          <mxGeometry relative="1" as="geometry">
            <mxPoint x="929.999696969697" y="765" as="sourcePoint" />
            <mxPoint x="1133.03" y="915.0000000000002" as="targetPoint" />
            <Array as="points">
              <mxPoint x="930" y="730" />
              <mxPoint x="930" y="915" />
            </Array>
          </mxGeometry>
        </mxCell>
        <mxCell id="oAxCQ654VfBFCkgefCG7-50" value="Payment service" style="sketch=0;outlineConnect=0;fontColor=#232F3E;gradientColor=none;strokeColor=#232F3E;fillColor=#ffffff;dashed=0;verticalLabelPosition=bottom;verticalAlign=top;align=center;html=1;fontSize=12;fontStyle=0;aspect=fixed;shape=mxgraph.aws4.resourceIcon;resIcon=mxgraph.aws4.instance;" vertex="1" parent="1">
          <mxGeometry x="827" y="700" width="60" height="60" as="geometry" />
        </mxCell>
        <mxCell id="oAxCQ654VfBFCkgefCG7-51" value="Commission service" style="sketch=0;outlineConnect=0;fontColor=#232F3E;gradientColor=none;strokeColor=#232F3E;fillColor=#ffffff;dashed=0;verticalLabelPosition=bottom;verticalAlign=top;align=center;html=1;fontSize=12;fontStyle=0;aspect=fixed;shape=mxgraph.aws4.resourceIcon;resIcon=mxgraph.aws4.instance;" vertex="1" parent="1">
          <mxGeometry x="827" y="840" width="60" height="60" as="geometry" />
        </mxCell>
        <mxCell id="oAxCQ654VfBFCkgefCG7-52" value="Administrative service" style="sketch=0;outlineConnect=0;fontColor=#232F3E;gradientColor=none;strokeColor=#232F3E;fillColor=#ffffff;dashed=0;verticalLabelPosition=bottom;verticalAlign=top;align=center;html=1;fontSize=12;fontStyle=0;aspect=fixed;shape=mxgraph.aws4.resourceIcon;resIcon=mxgraph.aws4.instance;" vertex="1" parent="1">
          <mxGeometry x="827" y="980" width="60" height="60" as="geometry" />
        </mxCell>
        <mxCell id="oAxCQ654VfBFCkgefCG7-56" style="edgeStyle=orthogonalEdgeStyle;rounded=0;orthogonalLoop=1;jettySize=auto;html=1;entryX=0;entryY=0.656;entryDx=0;entryDy=0;entryPerimeter=0;" edge="1" parent="1">
          <mxGeometry relative="1" as="geometry">
            <mxPoint x="1140" y="550.4" as="sourcePoint" />
            <mxPoint x="1173" y="550.0368" as="targetPoint" />
          </mxGeometry>
        </mxCell>
        <mxCell id="oAxCQ654VfBFCkgefCG7-48" value="Reporting service" style="sketch=0;outlineConnect=0;fontColor=#232F3E;gradientColor=none;strokeColor=#232F3E;fillColor=#ffffff;dashed=0;verticalLabelPosition=bottom;verticalAlign=top;align=center;html=1;fontSize=12;fontStyle=0;aspect=fixed;shape=mxgraph.aws4.resourceIcon;resIcon=mxgraph.aws4.instance;" vertex="1" parent="1">
          <mxGeometry x="690" y="840" width="60" height="60" as="geometry" />
        </mxCell>
      </root>
    </mxGraphModel>
  </diagram>
</mxfile>
